<?xml version="1.0" encoding="UTF-8"?>
<svg id="Capa_2" data-name="Capa 2" xmlns="http://www.w3.org/2000/svg" viewBox="0 0 576.88 56.55">
  <g id="Layer_1" data-name="Layer 1">
    <g>
      <path d="M164.31,1.64h0c4.21,0,7.61,3.41,7.61,7.61V46.63c0,4.84-3.93,8.77-8.77,8.77h-3.23c-1.47,0-2.66-1.19-2.66-2.66V26.87c0-.19-.24-.28-.36-.13l-10.91,13.67c-1.13,1.42-2.84,2.24-4.66,2.24h-.29c-2.08,0-4.05-.95-5.34-2.57l-10.64-13.33c-.12-.15-.36-.07-.36,.13v24.66c0,2.14-1.73,3.87-3.87,3.87h-2.03c-4.84,0-8.77-3.93-8.77-8.77V9.36c0-4.26,3.46-7.72,7.72-7.72h0c3.36,0,6.53,1.58,8.55,4.26l14.52,19.26c.08,.11,.24,.11,.32,0l14.46-19.17c2.06-2.74,5.29-4.35,8.72-4.35Z"/>
      <path d="M190.24,1.64h2.76c3.29,0,5.96,2.67,5.96,5.96V49.45c0,3.29-2.67,5.96-5.96,5.96h-2.76c-3.29,0-5.96-2.67-5.96-5.96V7.6c0-3.29,2.67-5.96,5.96-5.96Z"/>
      <path d="M215.14,1.64h7.06c1.31,0,2.54,.66,3.26,1.76l10.36,15.82c2.12,3.24,7.15,1.73,7.15-2.13V5.53c0-2.15,1.74-3.89,3.89-3.89h6.96c2.15,0,3.89,1.74,3.89,3.89V51.51c0,2.15-1.74,3.89-3.89,3.89h-7.06c-1.31,0-2.54-.66-3.26-1.76l-10.36-15.86c-2.12-3.24-7.15-1.74-7.15,2.13v11.6c0,2.15-1.74,3.89-3.89,3.89h-6.96c-2.15,0-3.89-1.74-3.89-3.89V5.53c0-2.15,1.74-3.89,3.89-3.89Z"/>
      <path d="M307.4,1.64h5.23c2.63,0,4.76,2.13,4.76,4.76v27.04c0,7.37-2.24,13.07-6.72,17.09-4.48,4.02-10.15,6.03-17.01,6.03s-12.52-2-16.97-5.99c-4.45-3.99-6.68-9.7-6.68-17.13V6.4c0-2.63,2.13-4.76,4.76-4.76h5.16c2.63,0,4.76,2.13,4.76,4.76v27.5c0,3.12,.84,5.53,2.54,7.22,1.69,1.69,3.84,2.53,6.45,2.53s4.76-.84,6.45-2.53c1.69-1.69,2.54-4.1,2.54-7.22V6.4c0-2.63,2.13-4.76,4.76-4.76Z"/>
      <path d="M371.23,6.71v2.3c0,2.8-2.27,5.07-5.07,5.07h-5.61c-2.8,0-5.07,2.27-5.07,5.07v31.18c0,2.8-2.27,5.07-5.07,5.07h-4.53c-2.8,0-5.07-2.27-5.07-5.07V19.15c0-2.8-2.27-5.07-5.07-5.07h-5.61c-2.8,0-5.07-2.27-5.07-5.07v-2.3c0-2.8,2.27-5.07,5.07-5.07h36.02c2.8,0,5.07,2.27,5.07,5.07Z"/>
      <path d="M452.21,45.72c1.25,1.23,1.88,2.71,1.88,4.45s-.63,3.24-1.88,4.49c-1.25,1.25-2.75,1.88-4.49,1.88s-3.3-.63-4.53-1.88c-1.23-1.25-1.84-2.75-1.84-4.49s.63-3.23,1.88-4.45c1.25-1.23,2.75-1.84,4.49-1.84s3.24,.61,4.49,1.84Z"/>
      <path d="M496.95,43.42c2.62,0,5.19-.61,7.69-1.84,2.03-1,4.49-.29,5.79,1.56l1.97,2.81c1.59,2.27,.87,5.41-1.53,6.78-4.48,2.55-9.12,3.82-13.92,3.82-8.65,0-15.91-2.71-21.77-8.14-5.86-5.43-8.79-12.06-8.79-19.89s2.93-14.48,8.79-19.93c5.86-5.45,13.12-8.18,21.77-8.18,4.84,0,9.49,1.29,13.96,3.87,2.39,1.38,3.09,4.52,1.5,6.78l-1.69,2.39c-1.57,2.23-4.02,2.92-6.04,1.94-2.44-1.18-5.01-1.77-7.72-1.77-4.61,0-8.46,1.43-11.56,4.3-3.1,2.87-4.65,6.4-4.65,10.6s1.55,7.67,4.65,10.56c3.1,2.89,6.95,4.34,11.56,4.34Z"/>
      <path d="M425.69,8.26c-5.73-5.5-12.49-8.26-20.28-8.26s-14.62,2.76-20.35,8.29c-5.74,5.53-8.6,12.14-8.6,19.82s2.87,14.27,8.6,19.78c5.73,5.5,12.52,8.26,20.35,8.26s14.6-2.75,20.31-8.26c5.71-5.5,8.56-12.1,8.56-19.78s-2.87-14.35-8.6-19.85Zm-20.31,36.03c-8.96,0-16.22-7.26-16.22-16.22s7.26-16.22,16.22-16.22,16.22,7.26,16.22,16.22-7.26,16.22-16.22,16.22Z"/>
      <path d="M568.27,8.26c-5.73-5.5-12.49-8.26-20.28-8.26s-14.62,2.76-20.35,8.29c-5.74,5.53-8.6,12.14-8.6,19.82s2.87,14.27,8.6,19.78c5.73,5.5,12.52,8.26,20.35,8.26s14.6-2.75,20.31-8.26c5.71-5.5,8.56-12.1,8.56-19.78s-2.87-14.35-8.6-19.85Zm-20.31,36.03c-8.96,0-16.22-7.26-16.22-16.22s7.26-16.22,16.22-16.22,16.22,7.26,16.22,16.22-7.26,16.22-16.22,16.22Z"/>
      <path d="M37.4,1.64h5.23c2.63,0,4.76,2.13,4.76,4.76v27.04c0,7.37-2.24,13.07-6.72,17.09-4.48,4.02-10.15,6.03-17.01,6.03s-12.52-2-16.97-5.99C2.23,46.57,0,40.86,0,33.44V6.4C0,3.77,2.13,1.64,4.76,1.64h5.16c2.63,0,4.76,2.13,4.76,4.76v27.5c0,3.12,.84,5.53,2.54,7.22,1.69,1.69,3.84,2.53,6.45,2.53s4.76-.84,6.45-2.53c1.69-1.69,2.54-4.1,2.54-7.22V6.4c0-2.63,2.13-4.76,4.76-4.76Z"/>
      <path d="M58.71,2.21h7.06c1.31,0,2.54,.66,3.26,1.76l10.36,15.82c2.12,3.24,7.15,1.73,7.15-2.13V6.11c0-2.15,1.74-3.89,3.89-3.89h6.96c2.15,0,3.89,1.74,3.89,3.89V52.09c0,2.15-1.74,3.89-3.89,3.89h-7.06c-1.31,0-2.54-.66-3.26-1.76l-10.36-15.86c-2.12-3.24-7.15-1.74-7.15,2.13v11.6c0,2.15-1.74,3.89-3.89,3.89h-6.96c-2.15,0-3.89-1.74-3.89-3.89V6.11c0-2.15,1.74-3.89,3.89-3.89Z"/>
    </g>
  </g>
</svg>