<?xml version="1.0" encoding="UTF-8"?>
<svg id="Capa_2" data-name="Capa 2" xmlns="http://www.w3.org/2000/svg" viewBox="0 0 36.07 36.07">
  <defs>
    <style>
      .cls-1 {
        fill: #fff;
      }

      .cls-2 {
        fill: #337fff;
      }
    </style>
  </defs>
  <g id="ELEMENTS">
    <g>
      <path class="cls-2" d="M26.94,36.07h-6.11l-2.79-.92-2.77,.92h-6.14c-5.04,0-9.13-4.09-9.13-9.13V9.13C0,4.09,4.09,0,9.13,0H26.94c5.04,0,9.13,4.09,9.13,9.13V26.94c0,5.04-4.09,9.13-9.13,9.13Z"/>
      <path class="cls-1" d="M15.25,14.11v3.92h-4.52v5.15h4.52v12.88h5.57v-12.88h4.15l.79-5.15h-4.94v-3.34c0-1.41,.69-2.78,2.9-2.78h2.25V7.53s-2.04-.35-3.99-.35c-4.07,0-6.73,2.47-6.73,6.93Z"/>
    </g>
  </g>
</svg>