<?xml version="1.0" encoding="UTF-8"?>
<svg id="Capa_2" data-name="Capa 2" xmlns="http://www.w3.org/2000/svg" viewBox="0 0 36.07 36.07">
  <defs>
    <style>
      .cls-1 {
        fill: #fff;
      }

      .cls-2 {
        fill: #3cf;
      }
    </style>
  </defs>
  <g id="ELEMENTS">
    <g>
      <path class="cls-2" d="M9.13,0H26.94c5.04,0,9.13,4.09,9.13,9.13V26.94c0,5.04-4.09,9.13-9.13,9.13H9.13c-5.04,0-9.13-4.09-9.13-9.13V9.13C0,4.09,4.09,0,9.13,0Z"/>
      <g>
        <path class="cls-1" d="M18.03,7.39c-1.03,0-2.98,3.31-3.21,9.42h6.42c-.23-6.11-2.18-9.42-3.21-9.42Z"/>
        <path class="cls-1" d="M14.82,19.25c.23,6.11,2.18,9.42,3.21,9.42s2.98-3.31,3.21-9.42h-6.42Z"/>
        <path class="cls-1" d="M23.68,16.81h6.15c-.51-5.03-4.16-9.12-8.96-10.3,1.7,2.12,2.65,6.14,2.81,10.3Z"/>
        <path class="cls-1" d="M12.39,16.81c.16-4.16,1.11-8.17,2.81-10.3-4.8,1.18-8.45,5.27-8.96,10.3h6.15Z"/>
        <path class="cls-1" d="M23.68,19.25c-.16,4.16-1.11,8.18-2.81,10.3,4.8-1.18,8.45-5.27,8.96-10.3h-6.15Z"/>
        <path class="cls-1" d="M12.39,19.25H6.24c.51,5.03,4.16,9.12,8.96,10.3-1.7-2.12-2.65-6.14-2.81-10.3Z"/>
      </g>
    </g>
  </g>
</svg>