<?xml version="1.0" encoding="UTF-8"?>
<svg id="Capa_2" data-name="Capa 2" xmlns="http://www.w3.org/2000/svg" viewBox="0 0 36.07 36.07">
  <defs>
    <style>
      .cls-1 {
        fill: #00d95f;
      }

      .cls-2, .cls-3 {
        fill: #fff;
      }

      .cls-3 {
        fill-rule: evenodd;
      }
    </style>
  </defs>
  <g id="ELEMENTS">
    <g>
      <rect class="cls-1" width="36.07" height="36.07" rx="9.13" ry="9.13"/>
      <g>
        <path class="cls-2" d="M8.41,28.42l1.49-5.54c-.84-1.52-1.28-3.22-1.28-4.94,0-5.64,4.59-10.23,10.23-10.23s10.23,4.59,10.23,10.23-4.59,10.23-10.23,10.23c-1.69,0-3.37-.43-4.86-1.24l-5.57,1.49Zm5.85-3.57l.35,.21c1.29,.77,2.75,1.17,4.24,1.17,4.58,0,8.3-3.72,8.3-8.3s-3.72-8.3-8.3-8.3-8.3,3.72-8.3,8.3c0,1.51,.42,3,1.21,4.3l.22,.35-.83,3.09,3.11-.83Z"/>
        <path class="cls-3" d="M22.65,19.36c-.42-.25-.97-.53-1.47-.33-.38,.16-.62,.75-.87,1.06-.13,.16-.28,.18-.47,.1-1.43-.57-2.52-1.52-3.31-2.84-.13-.2-.11-.37,.05-.55,.24-.28,.54-.6,.6-.98,.06-.38-.11-.82-.27-1.16-.2-.43-.42-1.04-.85-1.29-.4-.22-.92-.1-1.27,.19-.61,.5-.9,1.27-.89,2.04,0,.22,.03,.44,.08,.65,.12,.51,.36,.98,.62,1.43,.2,.34,.42,.67,.65,.99,.76,1.04,1.71,1.94,2.82,2.61,.55,.34,1.14,.63,1.76,.84,.69,.23,1.3,.46,2.04,.32,.78-.15,1.54-.63,1.85-1.38,.09-.22,.14-.47,.09-.7-.11-.48-.76-.77-1.15-1.01Z"/>
      </g>
    </g>
  </g>
</svg>